<svg width="32" height="32" viewBox="0 0 32 32" xmlns="http://www.w3.org/2000/svg">
  <defs>
    <linearGradient id="goldGradient" x1="0%" y1="0%" x2="100%" y2="100%">
      <stop offset="0%" style="stop-color:#FCD34D" />
      <stop offset="40%" style="stop-color:#F59E0B" />
      <stop offset="100%" style="stop-color:#B45309" />
    </linearGradient>
    <linearGradient id="goldLight" x1="0%" y1="0%" x2="100%" y2="100%">
      <stop offset="0%" style="stop-color:#FEF3C7" />
      <stop offset="100%" style="stop-color:#F59E0B" />
    </linearGradient>
    <linearGradient id="bgShade" x1="0%" y1="0%" x2="100%" y2="100%">
      <stop offset="0%" style="stop-color:#111827;opacity:0.7" />
      <stop offset="100%" style="stop-color:#0B1020;opacity:0.9" />
    </linearGradient>
    <filter id="glow">
      <feGaussianBlur stdDeviation="1.2" result="b"/>
      <feMerge><feMergeNode in="b"/><feMergeNode in="SourceGraphic"/></feMerge>
    </filter>
  </defs>

  <circle cx="16" cy="16" r="15" fill="url(#bgShade)" stroke="url(#goldGradient)" stroke-width="1.4"/>
  <circle cx="16" cy="16" r="13" fill="none" stroke="url(#goldLight)" stroke-width="0.8" opacity="0.35"/>

  <g filter="url(#glow)">
    <!-- Lid -->
    <rect x="7" y="10" width="18" height="3" rx="1.2" fill="url(#goldLight)" stroke="#D97706" stroke-width="0.6"/>
    <!-- Box -->
    <rect x="8" y="12" width="16" height="12" rx="1.2" fill="url(#goldGradient)" stroke="#B45309" stroke-width="0.6"/>
    <!-- Ribbon vertical -->
    <rect x="15" y="10" width="2" height="14" fill="#92400E"/>
    <!-- Ribbon horizontal -->
    <rect x="8" y="16" width="16" height="2" fill="#92400E"/>
    <!-- Bow -->
    <ellipse cx="12" cy="9" rx="3.2" ry="1.6" fill="url(#goldLight)" stroke="#D97706" stroke-width="0.4"/>
    <ellipse cx="20" cy="9" rx="3.2" ry="1.6" fill="url(#goldLight)" stroke="#D97706" stroke-width="0.4"/>
    <circle cx="16" cy="9" r="1.6" fill="url(#goldGradient)" stroke="#92400E" stroke-width="0.4"/>
  </g>

  <!-- Sparkles -->
  <circle cx="6" cy="6" r="0.5" fill="url(#goldLight)"/>
  <circle cx="26" cy="8" r="0.4" fill="url(#goldLight)"/>
  <circle cx="8" cy="26" r="0.4" fill="url(#goldLight)"/>
  <circle cx="24" cy="24" r="0.35" fill="url(#goldLight)"/>
</svg> 